<svg id="visual" viewBox="0 0 1080 450" width="1080" height="450" xmlns="http://www.w3.org/2000/svg" xmlns:xlink="http://www.w3.org/1999/xlink" version="1.1"><g stroke-width="1" stroke-linejoin="bevel"><path d="M615 256L621 366.5L682 327.5Z" fill="#0066ff" stroke="#0066ff"></path><path d="M497 450L625 450L621 366.5Z" fill="#0080ff" stroke="#0080ff"></path><path d="M621 366.5L680 450L682 327.5Z" fill="#00a4ff" stroke="#00a4ff"></path><path d="M865 359.5L740 225L682 327.5Z" fill="#00a4ff" stroke="#00a4ff"></path><path d="M682 327.5L740 225L615 256Z" fill="#00a4ff" stroke="#00a4ff"></path><path d="M615 256L484 311.5L621 366.5Z" fill="#00aaff" stroke="#00aaff"></path><path d="M625 450L680 450L621 366.5Z" fill="#0080ff" stroke="#0080ff"></path><path d="M740 225L617 143.5L615 256Z" fill="#0066ff" stroke="#0066ff"></path><path d="M615 256L445 211L484 311.5Z" fill="#00a4ff" stroke="#00a4ff"></path><path d="M484 311.5L497 450L621 366.5Z" fill="#0080ff" stroke="#0080ff"></path><path d="M617 143.5L445 211L615 256Z" fill="#0096ff" stroke="#0096ff"></path><path d="M484 311.5L389 339.5L497 450Z" fill="#0078ff" stroke="#0078ff"></path><path d="M740 225L704 94.5L617 143.5Z" fill="#00a4ff" stroke="#00a4ff"></path><path d="M617 143.5L512 97.5L445 211Z" fill="#00aaff" stroke="#00aaff"></path><path d="M445 211L389 339.5L484 311.5Z" fill="#0080ff" stroke="#0080ff"></path><path d="M832 450L865 359.5L682 327.5Z" fill="#00b0ff" stroke="#00b0ff"></path><path d="M740 225L870 144.5L704 94.5Z" fill="#006fff" stroke="#006fff"></path><path d="M599 0L512 97.5L617 143.5Z" fill="#00aaff" stroke="#00aaff"></path><path d="M680 450L832 450L682 327.5Z" fill="#0078ff" stroke="#0078ff"></path><path d="M865 359.5L877 254L740 225Z" fill="#008fff" stroke="#008fff"></path><path d="M512 97.5L399 190L445 211Z" fill="#006fff" stroke="#006fff"></path><path d="M445 211L399 190L389 339.5Z" fill="#00aaff" stroke="#00aaff"></path><path d="M877 254L870 144.5L740 225Z" fill="#00a4ff" stroke="#00a4ff"></path><path d="M213 363.5L366 450L389 339.5Z" fill="#0096ff" stroke="#0096ff"></path><path d="M389 339.5L366 450L497 450Z" fill="#00aaff" stroke="#00aaff"></path><path d="M704 94.5L599 0L617 143.5Z" fill="#0078ff" stroke="#0078ff"></path><path d="M512 97.5L357 119.5L399 190Z" fill="#006fff" stroke="#006fff"></path><path d="M725 0L599 0L704 94.5Z" fill="#00aaff" stroke="#00aaff"></path><path d="M814 0L725 0L704 94.5Z" fill="#0066ff" stroke="#0066ff"></path><path d="M465 0L357 119.5L512 97.5Z" fill="#0088ff" stroke="#0088ff"></path><path d="M205 240L213 363.5L389 339.5Z" fill="#006fff" stroke="#006fff"></path><path d="M970 450L971 355.5L865 359.5Z" fill="#009dff" stroke="#009dff"></path><path d="M865 359.5L971 355.5L877 254Z" fill="#0088ff" stroke="#0088ff"></path><path d="M877 254L974 119.5L870 144.5Z" fill="#00aaff" stroke="#00aaff"></path><path d="M599 0L465 0L512 97.5Z" fill="#009dff" stroke="#009dff"></path><path d="M870 144.5L814 0L704 94.5Z" fill="#006fff" stroke="#006fff"></path><path d="M967 0L814 0L870 144.5Z" fill="#0096ff" stroke="#0096ff"></path><path d="M832 450L970 450L865 359.5Z" fill="#006fff" stroke="#006fff"></path><path d="M1080 316.5L996 259L971 355.5Z" fill="#0080ff" stroke="#0080ff"></path><path d="M971 355.5L996 259L877 254Z" fill="#006fff" stroke="#006fff"></path><path d="M996 259L974 119.5L877 254Z" fill="#00a4ff" stroke="#00a4ff"></path><path d="M205 240L389 339.5L399 190Z" fill="#0080ff" stroke="#0080ff"></path><path d="M259 83.5L205 240L357 119.5Z" fill="#008fff" stroke="#008fff"></path><path d="M357 119.5L205 240L399 190Z" fill="#0096ff" stroke="#0096ff"></path><path d="M213 363.5L220 450L366 450Z" fill="#0066ff" stroke="#0066ff"></path><path d="M322 0L259 83.5L357 119.5Z" fill="#0078ff" stroke="#0078ff"></path><path d="M465 0L322 0L357 119.5Z" fill="#009dff" stroke="#009dff"></path><path d="M1080 450L1080 316.5L971 355.5Z" fill="#00a4ff" stroke="#00a4ff"></path><path d="M996 259L1080 194L974 119.5Z" fill="#00b0ff" stroke="#00b0ff"></path><path d="M1080 0L967 0L974 119.5Z" fill="#00aaff" stroke="#00aaff"></path><path d="M974 119.5L967 0L870 144.5Z" fill="#00b0ff" stroke="#00b0ff"></path><path d="M1080 316.5L1080 194L996 259Z" fill="#0078ff" stroke="#0078ff"></path><path d="M970 450L1080 450L971 355.5Z" fill="#0088ff" stroke="#0088ff"></path><path d="M1080 194L1080 138.5L974 119.5Z" fill="#0088ff" stroke="#0088ff"></path><path d="M128 133.5L147 253L205 240Z" fill="#00b0ff" stroke="#00b0ff"></path><path d="M205 240L147 253L213 363.5Z" fill="#006fff" stroke="#006fff"></path><path d="M213 363.5L120 450L220 450Z" fill="#0096ff" stroke="#0096ff"></path><path d="M322 0L217 0L259 83.5Z" fill="#00aaff" stroke="#00aaff"></path><path d="M259 83.5L128 133.5L205 240Z" fill="#0080ff" stroke="#0080ff"></path><path d="M0 312.5L105 312.5L0 251Z" fill="#0096ff" stroke="#0096ff"></path><path d="M147 253L105 312.5L213 363.5Z" fill="#00aaff" stroke="#00aaff"></path><path d="M105 312.5L120 450L213 363.5Z" fill="#0088ff" stroke="#0088ff"></path><path d="M145 0L128 133.5L259 83.5Z" fill="#0080ff" stroke="#0080ff"></path><path d="M1080 138.5L1080 0L974 119.5Z" fill="#0088ff" stroke="#0088ff"></path><path d="M217 0L145 0L259 83.5Z" fill="#0078ff" stroke="#0078ff"></path><path d="M0 251L105 312.5L147 253Z" fill="#0080ff" stroke="#0080ff"></path><path d="M0 251L147 253L128 133.5Z" fill="#009dff" stroke="#009dff"></path><path d="M105 312.5L0 450L120 450Z" fill="#008fff" stroke="#008fff"></path><path d="M0 122.5L0 251L128 133.5Z" fill="#00b0ff" stroke="#00b0ff"></path><path d="M0 312.5L0 450L105 312.5Z" fill="#0096ff" stroke="#0096ff"></path><path d="M0 0L0 122.5L128 133.5Z" fill="#00a4ff" stroke="#00a4ff"></path><path d="M145 0L0 0L128 133.5Z" fill="#00a4ff" stroke="#00a4ff"></path></g></svg>