<svg id="visual" viewBox="0 0 1080 450" width="1080" height="450" xmlns="http://www.w3.org/2000/svg" xmlns:xlink="http://www.w3.org/1999/xlink" version="1.1"><path d="M0 28L22.5 25.8C45 23.7 90 19.3 135 18.7C180 18 225 21 270 24.7C315 28.3 360 32.7 405 33.3C450 34 495 31 540 27.3C585 23.7 630 19.3 675 18.7C720 18 765 21 810 24C855 27 900 30 945 32.2C990 34.3 1035 35.7 1057.5 36.3L1080 37L1080 0L1057.5 0C1035 0 990 0 945 0C900 0 855 0 810 0C765 0 720 0 675 0C630 0 585 0 540 0C495 0 450 0 405 0C360 0 315 0 270 0C225 0 180 0 135 0C90 0 45 0 22.5 0L0 0Z" fill="#6198ff"></path><path d="M0 118L22.5 117.3C45 116.7 90 115.3 135 127.3C180 139.3 225 164.7 270 174.3C315 184 360 178 405 166C450 154 495 136 540 128.5C585 121 630 124 675 125.5C720 127 765 127 810 124.8C855 122.7 900 118.3 945 125.8C990 133.3 1035 152.7 1057.5 162.3L1080 172L1080 35L1057.5 34.3C1035 33.7 990 32.3 945 30.2C900 28 855 25 810 22C765 19 720 16 675 16.7C630 17.3 585 21.7 540 25.3C495 29 450 32 405 31.3C360 30.7 315 26.3 270 22.7C225 19 180 16 135 16.7C90 17.3 45 21.7 22.5 23.8L0 26Z" fill="#377dff"></path><path d="M0 132L22.5 135.7C45 139.3 90 146.7 135 161.7C180 176.7 225 199.3 270 205.3C315 211.3 360 200.7 405 189.3C450 178 495 166 540 162.3C585 158.7 630 163.3 675 163.3C720 163.3 765 158.7 810 154.8C855 151 900 148 945 159.3C990 170.7 1035 196.3 1057.5 209.2L1080 222L1080 170L1057.5 160.3C1035 150.7 990 131.3 945 123.8C900 116.3 855 120.7 810 122.8C765 125 720 125 675 123.5C630 122 585 119 540 126.5C495 134 450 152 405 164C360 176 315 182 270 172.3C225 162.7 180 137.3 135 125.3C90 113.3 45 114.7 22.5 115.3L0 116Z" fill="#0063f7"></path><path d="M0 177L22.5 180C45 183 90 189 135 204C180 219 225 243 270 251.2C315 259.3 360 251.7 405 238.8C450 226 495 208 540 204.3C585 200.7 630 211.3 675 214.3C720 217.3 765 212.7 810 205.8C855 199 900 190 945 201.3C990 212.7 1035 244.3 1057.5 260.2L1080 276L1080 220L1057.5 207.2C1035 194.3 990 168.7 945 157.3C900 146 855 149 810 152.8C765 156.7 720 161.3 675 161.3C630 161.3 585 156.7 540 160.3C495 164 450 176 405 187.3C360 198.7 315 209.3 270 203.3C225 197.3 180 174.7 135 159.7C90 144.7 45 137.3 22.5 133.7L0 130Z" fill="#0055d1"></path><path d="M0 222L22.5 228.7C45 235.3 90 248.7 135 262.2C180 275.7 225 289.3 270 291.7C315 294 360 285 405 277.5C450 270 495 264 540 267C585 270 630 282 675 283.5C720 285 765 276 810 263.2C855 250.3 900 233.7 945 241.2C990 248.7 1035 280.3 1057.5 296.2L1080 312L1080 274L1057.5 258.2C1035 242.3 990 210.7 945 199.3C900 188 855 197 810 203.8C765 210.7 720 215.3 675 212.3C630 209.3 585 198.7 540 202.3C495 206 450 224 405 236.8C360 249.7 315 257.3 270 249.2C225 241 180 217 135 202C90 187 45 181 22.5 178L0 175Z" fill="#004cbb"></path><path d="M0 253L22.5 259.8C45 266.7 90 280.3 135 293.2C180 306 225 318 270 319.5C315 321 360 312 405 302.2C450 292.3 495 281.7 540 283.8C585 286 630 301 675 305.5C720 310 765 304 810 292.8C855 281.7 900 265.3 945 271.3C990 277.3 1035 305.7 1057.5 319.8L1080 334L1080 310L1057.5 294.2C1035 278.3 990 246.7 945 239.2C900 231.7 855 248.3 810 261.2C765 274 720 283 675 281.5C630 280 585 268 540 265C495 262 450 268 405 275.5C360 283 315 292 270 289.7C225 287.3 180 273.7 135 260.2C90 246.7 45 233.3 22.5 226.7L0 220Z" fill="#004cbb"></path><path d="M0 276L22.5 280.5C45 285 90 294 135 305.2C180 316.3 225 329.7 270 334.8C315 340 360 337 405 331C450 325 495 316 540 314.5C585 313 630 319 675 321.3C720 323.7 765 322.3 810 314.2C855 306 900 291 945 294.7C990 298.3 1035 320.7 1057.5 331.8L1080 343L1080 332L1057.5 317.8C1035 303.7 990 275.3 945 269.3C900 263.3 855 279.7 810 290.8C765 302 720 308 675 303.5C630 299 585 284 540 281.8C495 279.7 450 290.3 405 300.2C360 310 315 319 270 317.5C225 316 180 304 135 291.2C90 278.3 45 264.7 22.5 257.8L0 251Z" fill="#0055d1"></path><path d="M0 325L22.5 325.8C45 326.7 90 328.3 135 335.2C180 342 225 354 270 360C315 366 360 366 405 366.7C450 367.3 495 368.7 540 367.2C585 365.7 630 361.3 675 359.2C720 357 765 357 810 351C855 345 900 333 945 338.2C990 343.3 1035 365.7 1057.5 376.8L1080 388L1080 341L1057.5 329.8C1035 318.7 990 296.3 945 292.7C900 289 855 304 810 312.2C765 320.3 720 321.7 675 319.3C630 317 585 311 540 312.5C495 314 450 323 405 329C360 335 315 338 270 332.8C225 327.7 180 314.3 135 303.2C90 292 45 283 22.5 278.5L0 274Z" fill="#0063f7"></path><path d="M0 411L22.5 414.7C45 418.3 90 425.7 135 428.7C180 431.7 225 430.3 270 430.3C315 430.3 360 431.7 405 433.2C450 434.7 495 436.3 540 434.8C585 433.3 630 428.7 675 427.8C720 427 765 430 810 430.8C855 431.7 900 430.3 945 430.3C990 430.3 1035 431.7 1057.5 432.3L1080 433L1080 386L1057.5 374.8C1035 363.7 990 341.3 945 336.2C900 331 855 343 810 349C765 355 720 355 675 357.2C630 359.3 585 363.7 540 365.2C495 366.7 450 365.3 405 364.7C360 364 315 364 270 358C225 352 180 340 135 333.2C90 326.3 45 324.7 22.5 323.8L0 323Z" fill="#377dff"></path><path d="M0 451L22.5 451C45 451 90 451 135 451C180 451 225 451 270 451C315 451 360 451 405 451C450 451 495 451 540 451C585 451 630 451 675 451C720 451 765 451 810 451C855 451 900 451 945 451C990 451 1035 451 1057.5 451L1080 451L1080 431L1057.5 430.3C1035 429.7 990 428.3 945 428.3C900 428.3 855 429.7 810 428.8C765 428 720 425 675 425.8C630 426.7 585 431.3 540 432.8C495 434.3 450 432.7 405 431.2C360 429.7 315 428.3 270 428.3C225 428.3 180 429.7 135 426.7C90 423.7 45 416.3 22.5 412.7L0 409Z" fill="#6198ff"></path></svg>