<svg version="1.1" id="Layer_1" xmlns="http://www.w3.org/2000/svg" xmlns:xlink="http://www.w3.org/1999/xlink" x="0px" y="0px"
	 width="100%" viewBox="0 0 500 500" enable-background="new 0 0 500 500" xml:space="preserve">
<!-- <path fill="#000000" opacity="1.000000" stroke="none" 
	d="
M1.000000,186.000000 
	C1.000000,124.015358 1.000000,62.530712 1.000000,1.023033 
	C167.609695,1.023033 334.219391,1.023033 500.914551,1.023033 
	C500.914551,167.568039 500.914551,334.136139 500.914551,500.852112 
	C334.333435,500.852112 167.666733,500.852112 1.000000,500.852112 
	C1.000000,396.113800 1.000000,291.306915 1.000000,186.000000 
M101.999130,225.985992 
	C101.999130,225.985992 102.027779,225.866882 101.380432,225.986893 
	C100.879875,226.309708 100.379318,226.632523 99.988785,226.960449 
	C99.988785,226.960449 99.991997,226.850357 99.295662,226.989655 
	C97.823730,227.978607 96.351791,228.967560 94.988457,229.962067 
	C94.988457,229.962067 94.992180,229.853394 94.251266,229.987457 
	C91.770599,231.656448 89.289940,233.325455 86.069870,234.973495 
	C82.560455,236.920990 79.096687,238.957336 75.528496,240.790421 
	C72.115158,242.543991 71.205971,245.050385 73.066734,248.336151 
	C79.773354,260.178741 86.371933,272.090698 93.451706,283.708069 
	C95.201004,286.578491 97.332047,289.733307 102.584099,286.382935 
	C118.544472,276.201569 134.996750,266.779755 151.394623,257.299377 
	C164.719696,249.595505 178.361832,242.434906 191.597809,234.585571 
	C195.113220,232.500839 196.474869,233.489502 198.038254,236.293518 
	C199.839508,239.524185 201.593857,242.783081 203.476562,245.965820 
	C210.632385,258.062866 217.957977,270.061371 224.977280,282.236694 
	C231.229019,293.080658 230.964600,292.937653 219.580872,299.157684 
	C207.521194,305.747040 195.675003,312.733887 183.829742,319.707123 
	C168.899872,328.496246 154.113739,337.529907 139.166016,346.288147 
	C133.172455,349.799896 132.869522,351.036713 136.515823,357.172668 
	C144.030594,369.818481 151.387543,382.560059 158.655167,395.349854 
	C161.689392,400.689667 164.991486,401.572968 170.365860,398.155304 
	C174.463577,395.549530 178.661667,393.098572 182.853790,390.644806 
	C198.089478,381.726807 213.337692,372.830170 228.588348,363.937714 
	C243.874771,355.024384 259.160889,346.110474 274.467194,337.231384 
	C278.288330,335.014709 280.871704,335.689667 283.129517,339.968933 
	C287.358215,347.983582 292.270447,355.635223 296.814117,363.486664 
	C302.170044,372.741760 307.525269,382.000458 312.619537,391.399200 
	C313.198517,392.467377 312.623352,395.272034 311.685730,395.874603 
	C304.586273,400.436829 297.286804,404.691406 290.003876,408.963776 
	C275.915100,417.228638 261.800232,425.449005 247.688721,433.675079 
	C234.464523,441.383911 221.230698,449.076233 207.182297,456.992523 
	C206.719940,457.800751 206.257568,458.608978 205.559052,459.830017 
	C223.885620,459.830017 241.437622,459.830017 259.918060,459.977051 
	C290.800629,459.987762 321.683258,460.012085 352.565735,459.968262 
	C354.078003,459.966125 355.589447,459.368317 357.847046,459.005096 
	C360.311951,457.117523 363.374939,455.660767 365.112030,453.248993 
	C368.314880,448.802307 370.703674,443.773987 373.494202,439.024780 
	C384.403198,420.458771 395.399414,401.943726 406.241699,383.338928 
	C415.376831,367.663574 424.288055,351.857910 433.399567,336.168671 
	C443.729309,318.381805 454.134094,300.638123 464.584442,282.921814 
	C468.553711,276.192871 472.740723,269.592316 477.141846,262.312347 
	C477.811920,260.877228 478.481964,259.442108 479.036316,258.009766 
	C479.036316,258.009766 479.040833,258.125427 479.677582,257.815216 
	C480.836853,255.546585 481.996155,253.277969 483.052063,251.012085 
	C483.052063,251.012085 483.057190,251.115372 483.742737,250.729782 
	C484.151398,248.347702 485.567810,245.536514 484.771912,243.667313 
	C482.721588,238.852097 479.692139,234.453796 477.046722,229.986786 
	C477.046722,229.986786 477.144714,229.991608 477.022797,229.273392 
	C476.029907,227.811722 475.037018,226.350052 474.041382,224.990112 
	C474.041382,224.990112 474.143158,224.990952 474.016479,224.252533 
	C471.623291,220.005936 469.230103,215.759338 466.810669,211.263870 
	C466.810669,211.263870 466.564514,211.218781 466.175568,210.721344 
	C465.463226,209.774231 464.750885,208.827118 464.013641,208.002060 
	C464.013641,208.002060 464.135773,208.026413 464.018951,207.378311 
	C463.692383,206.878571 463.365845,206.378815 463.035370,205.993835 
	C463.035370,205.993835 463.150177,205.996155 463.008972,205.259735 
	C459.355499,199.134308 455.702026,193.008865 452.040619,186.989685 
	C452.040619,186.989685 452.146973,186.995636 452.012970,186.335983 
	C451.355377,185.517090 450.697784,184.698212 450.013458,183.994614 
	C450.013458,183.994614 450.128906,184.020615 450.024445,183.372971 
	C449.698669,182.876495 449.372894,182.380020 449.042480,181.986404 
	C449.042480,181.986404 449.145386,181.988937 449.020020,181.268539 
	C447.697540,179.140503 446.375031,177.012482 445.045898,174.985703 
	C445.045898,174.985703 445.147278,174.990097 445.011353,174.256180 
	C442.688934,170.463974 440.366516,166.671783 438.039154,162.987976 
	C438.039154,162.987976 438.147614,162.991104 438.011902,162.294617 
	C437.022644,160.822220 436.033386,159.349823 435.039825,157.986725 
	C435.039825,157.986725 435.149170,157.989014 435.014221,157.269333 
	C433.693329,155.141739 432.372437,153.014160 431.044067,150.986389 
	C431.044067,150.986389 431.144012,150.991714 431.010834,150.266586 
	C429.342682,147.779526 427.674561,145.292465 426.024017,142.235138 
	C425.737152,141.816360 425.450287,141.397583 425.019745,140.350311 
	C424.695374,139.860977 424.371033,139.371628 424.042542,138.982300 
	C424.042542,138.982300 424.142639,138.984238 424.014771,138.286682 
	C423.025879,136.818069 422.036957,135.349472 421.043823,133.981796 
	C421.043823,133.981796 421.144806,133.983734 421.016205,133.263962 
	C419.693390,131.136963 418.370575,129.009979 417.042236,126.982880 
	C417.042236,126.982880 417.142242,126.986137 417.011780,126.329697 
	C416.357849,125.520081 415.703918,124.710472 414.774353,123.253036 
	C405.552460,107.488266 396.330597,91.723495 387.014435,75.257385 
	C386.358368,74.133156 385.702301,73.008934 385.041534,71.981934 
	C385.041534,71.981934 385.138855,71.984421 385.009949,71.287994 
	C384.021820,69.820107 383.033722,68.352219 382.041321,66.981796 
	C382.041321,66.981796 382.138885,66.983841 382.009003,66.248390 
	C381.371460,64.979935 380.841827,63.641785 380.076141,62.456089 
	C377.783447,58.905834 375.398468,55.415203 372.994690,51.182159 
	C371.982819,49.365391 371.135101,47.430336 369.927612,45.754539 
	C366.618408,41.161888 365.036163,35.041298 358.533447,32.154213 
	C358.368835,32.128685 358.204224,32.080841 358.039612,32.080780 
	C278.084534,32.051659 198.129440,32.003056 118.174591,32.124352 
	C116.069321,32.127548 113.966873,33.980675 111.272400,35.197102 
	C110.833397,36.095764 110.394394,36.994423 109.218109,37.995949 
	C106.432228,42.990829 103.646347,47.985710 100.952873,52.979355 
	C100.952873,52.979355 100.949135,52.887009 100.363258,53.151455 
	C100.192757,53.759819 100.022247,54.368179 99.218475,55.245499 
	C98.138191,57.445042 97.057907,59.644585 95.337067,62.149635 
	C92.511551,67.094345 89.686035,72.039047 86.956810,76.982185 
	C86.956810,76.982185 86.952980,76.885971 86.374313,77.149239 
	C86.215942,77.750702 86.057571,78.352173 85.258583,79.225616 
	C84.155106,81.452423 83.051620,83.679222 81.304306,86.176704 
	C79.487274,89.445702 77.670242,92.714691 75.954796,95.982185 
	C75.954796,95.982185 75.950951,95.880661 75.316605,96.169998 
	C74.496445,97.775352 73.676285,99.380707 72.956696,100.984184 
	C72.956696,100.984184 72.952621,100.883675 72.368225,101.150612 
	C72.200203,101.758583 72.032181,102.366562 71.243416,103.276535 
	C70.145638,105.485329 69.047859,107.694122 67.332687,110.150917 
	C66.840790,111.096863 66.348892,112.042816 65.958221,112.985420 
	C65.958221,112.985420 65.952774,112.884293 65.308929,113.179550 
	C64.158211,115.448174 63.007488,117.716805 61.957104,119.983612 
	C61.957104,119.983612 61.953087,119.883347 61.310303,120.182335 
	C60.148525,122.450424 58.986744,124.718513 57.205429,127.294052 
	C44.973526,148.252167 32.741623,169.210297 20.509720,190.168411 
	C20.839817,190.488892 21.169914,190.809387 21.500010,191.129883 
	C22.481001,190.775482 23.559147,190.578415 24.427729,190.042007 
	C31.913668,185.419022 39.239773,180.523834 46.851471,176.121201 
	C56.820610,170.355011 67.118584,165.156143 77.071548,159.363495 
	C90.644096,151.464233 103.987831,143.172928 117.500275,135.168900 
	C126.793129,129.664322 136.238571,124.417671 145.546127,118.937355 
	C148.552917,117.166946 151.049271,117.642738 152.723206,120.423431 
	C156.900528,127.362572 160.760818,134.491623 164.854630,141.482208 
	C170.575150,151.250610 176.460449,160.923004 182.126617,170.722427 
	C183.832382,173.672470 185.643082,176.884949 180.763885,179.086044 
	C178.451767,180.129089 176.476608,181.894180 174.265411,183.189819 
	C157.385666,193.080536 140.459961,202.893021 123.604050,212.824066 
	C116.979469,216.727066 110.496727,220.870834 103.318413,224.991562 
	C102.839005,225.313278 102.359596,225.634995 101.999130,225.985992 
z"/> -->
<path fill="#38B6FF" opacity="1.000000" stroke="none" 
	d="
M208.001099,456.775818 
	C221.230698,449.076233 234.464523,441.383911 247.688721,433.675079 
	C261.800232,425.449005 275.915100,417.228638 290.003876,408.963776 
	C297.286804,404.691406 304.586273,400.436829 311.685730,395.874603 
	C312.623352,395.272034 313.198517,392.467377 312.619537,391.399200 
	C307.525269,382.000458 302.170044,372.741760 296.814117,363.486664 
	C292.270447,355.635223 287.358215,347.983582 283.129517,339.968933 
	C280.871704,335.689667 278.288330,335.014709 274.467194,337.231384 
	C259.160889,346.110474 243.874771,355.024384 228.588348,363.937714 
	C213.337692,372.830170 198.089478,381.726807 182.853790,390.644806 
	C178.661667,393.098572 174.463577,395.549530 170.365860,398.155304 
	C164.991486,401.572968 161.689392,400.689667 158.655167,395.349854 
	C151.387543,382.560059 144.030594,369.818481 136.515823,357.172668 
	C132.869522,351.036713 133.172455,349.799896 139.166016,346.288147 
	C154.113739,337.529907 168.899872,328.496246 183.829742,319.707123 
	C195.675003,312.733887 207.521194,305.747040 219.580872,299.157684 
	C230.964600,292.937653 231.229019,293.080658 224.977280,282.236694 
	C217.957977,270.061371 210.632385,258.062866 203.476562,245.965820 
	C201.593857,242.783081 199.839508,239.524185 198.038254,236.293518 
	C196.474869,233.489502 195.113220,232.500839 191.597809,234.585571 
	C178.361832,242.434906 164.719696,249.595505 151.394623,257.299377 
	C134.996750,266.779755 118.544472,276.201569 102.584099,286.382935 
	C97.332047,289.733307 95.201004,286.578491 93.451706,283.708069 
	C86.371933,272.090698 79.773354,260.178741 73.066734,248.336151 
	C71.205971,245.050385 72.115158,242.543991 75.528496,240.790421 
	C79.096687,238.957336 82.560455,236.920990 86.803055,234.933289 
	C90.021561,233.213196 92.506866,231.533295 94.992180,229.853394 
	C94.992180,229.853394 94.988457,229.962067 95.284760,229.924683 
	C97.051369,228.874985 98.521683,227.862671 99.992004,226.850357 
	C99.991997,226.850357 99.988785,226.960449 100.243713,226.919617 
	C101.008347,226.541473 101.518059,226.204178 102.027779,225.866882 
	C102.027779,225.866882 101.999130,225.985992 102.240280,225.933762 
	C102.970757,225.556015 103.460083,225.230484 103.949402,224.904968 
	C110.496727,220.870834 116.979469,216.727066 123.604050,212.824066 
	C140.459961,202.893021 157.385666,193.080536 174.265411,183.189819 
	C176.476608,181.894180 178.451767,180.129089 180.763885,179.086044 
	C185.643082,176.884949 183.832382,173.672470 182.126617,170.722427 
	C176.460449,160.923004 170.575150,151.250610 164.854630,141.482208 
	C160.760818,134.491623 156.900528,127.362572 152.723206,120.423431 
	C151.049271,117.642738 148.552917,117.166946 145.546127,118.937355 
	C136.238571,124.417671 126.793129,129.664322 117.500275,135.168900 
	C103.987831,143.172928 90.644096,151.464233 77.071548,159.363495 
	C67.118584,165.156143 56.820610,170.355011 46.851471,176.121201 
	C39.239773,180.523834 31.913668,185.419022 24.427729,190.042007 
	C23.559147,190.578415 22.481001,190.775482 21.500010,191.129883 
	C21.169914,190.809387 20.839817,190.488892 20.509720,190.168411 
	C32.741623,169.210297 44.973526,148.252167 57.825813,126.980591 
	C59.615162,124.405861 60.784126,122.144608 61.953087,119.883347 
	C61.953087,119.883347 61.957104,119.983612 62.216026,119.823135 
	C63.634224,117.403206 64.793495,115.143753 65.952774,112.884293 
	C65.952774,112.884293 65.958221,112.985420 66.201508,112.831512 
	C66.946556,111.752701 67.448318,110.827805 67.950081,109.902916 
	C69.047859,107.694122 70.145638,105.485329 71.781372,102.921814 
	C72.530426,102.005951 72.741524,101.444809 72.952621,100.883675 
	C72.952621,100.883675 72.956696,100.984184 73.212845,100.823914 
	C74.296318,99.069313 75.123634,97.474991 75.950951,95.880661 
	C75.950951,95.880661 75.954796,95.982185 76.211739,95.821777 
	C78.295166,92.409584 80.121658,89.157806 81.948143,85.906029 
	C83.051620,83.679222 84.155106,81.452423 85.796402,78.884506 
	C86.540474,77.990913 86.746727,77.438438 86.952980,76.885971 
	C86.952980,76.885971 86.956810,76.982185 87.213455,76.820404 
	C90.305939,71.720451 93.141777,66.782288 95.977623,61.844128 
	C97.057907,59.644585 98.138191,57.445042 99.762024,54.906185 
	C100.520096,54.006920 100.734619,53.446964 100.949142,52.887009 
	C100.949135,52.887009 100.952873,52.979355 101.211731,52.815376 
	C104.298859,47.731956 107.127121,42.812519 109.955383,37.893082 
	C110.394394,36.994423 110.833397,36.095764 111.961456,35.032074 
	C116.210236,34.247650 119.769157,33.092934 123.329819,33.087536 
	C201.829361,32.968506 280.329071,32.976730 358.828766,32.960678 
	C365.036163,35.041298 366.618408,41.161888 369.927612,45.754539 
	C371.135101,47.430336 371.982819,49.365391 373.063965,51.900459 
	C376.135162,57.407116 379.137024,62.195473 382.138885,66.983841 
	C382.138885,66.983841 382.041321,66.981796 382.084106,67.281784 
	C383.130859,69.049316 384.134857,70.516869 385.138855,71.984421 
	C385.138855,71.984421 385.041534,71.981934 385.081299,72.272263 
	C385.783630,73.694626 386.446167,74.826675 387.108704,75.958725 
	C396.330597,91.723495 405.552460,107.488266 414.949890,123.904778 
	C415.797668,125.366394 416.469971,126.176262 417.142242,126.986137 
	C417.142242,126.986137 417.042236,126.982880 417.082581,127.291641 
	C418.463562,129.728180 419.804169,131.855957 421.144806,133.983734 
	C421.144806,133.983734 421.043823,133.981796 421.083496,134.281097 
	C422.129669,136.048340 423.136169,137.516281 424.142639,138.984238 
	C424.142639,138.984238 424.042542,138.982300 424.090393,139.237976 
	C424.479980,139.988724 424.821686,140.483780 425.163391,140.978821 
	C425.450287,141.397583 425.737152,141.816360 426.066162,142.884094 
	C427.786865,146.019287 429.465424,148.505508 431.144012,150.991714 
	C431.144012,150.991714 431.044067,150.986389 431.042511,151.304199 
	C432.410370,153.744339 433.779755,155.866669 435.149170,157.989014 
	C435.149170,157.989014 435.039825,157.986725 435.078125,158.283051 
	C436.126831,160.049942 437.137238,161.520508 438.147644,162.991089 
	C438.147614,162.991104 438.039154,162.987976 438.078186,163.300201 
	C440.460541,167.404968 442.803925,171.197540 445.147278,174.990097 
	C445.147278,174.990097 445.045898,174.985703 445.043213,175.303162 
	C446.408783,177.743408 447.777100,179.866165 449.145386,181.988937 
	C449.145386,181.988937 449.042480,181.986404 449.077850,182.246262 
	C449.451782,183.010956 449.790344,183.515793 450.128906,184.020615 
	C450.128906,184.020615 450.013458,183.994614 450.059875,184.271210 
	C450.786499,185.363739 451.466736,186.179688 452.146973,186.995636 
	C452.146973,186.995636 452.040619,186.989685 452.037720,187.311554 
	C455.739929,193.754333 459.445068,199.875244 463.150177,205.996155 
	C463.150177,205.996155 463.035370,205.993835 463.073486,206.249237 
	C463.452972,207.011887 463.794373,207.519150 464.135773,208.026413 
	C464.135773,208.026413 464.013641,208.002060 464.061218,208.285675 
	C464.927399,209.452454 465.745941,210.335617 466.564514,211.218781 
	C466.564514,211.218781 466.810669,211.263870 466.673767,211.736237 
	C469.072296,216.469376 471.607727,220.730164 474.143158,224.990952 
	C474.143158,224.990952 474.041382,224.990112 474.064392,225.292175 
	C475.106476,227.060043 476.125580,228.525833 477.144714,229.991608 
	C477.144714,229.991608 477.046722,229.986786 477.034180,230.312820 
	C477.668915,232.114044 478.113342,233.726013 478.999512,235.040070 
	C482.300232,239.934570 484.499390,245.049179 483.057190,251.115372 
	C483.057190,251.115372 483.052063,251.012085 482.781189,251.149536 
	C481.353821,253.566467 480.197327,255.845947 479.040833,258.125427 
	C479.040833,258.125427 479.036316,258.009766 478.799591,258.145813 
	C477.984741,259.832336 477.406616,261.382812 476.828491,262.933258 
	C472.740723,269.592316 468.553711,276.192871 464.584442,282.921814 
	C454.134094,300.638123 443.729309,318.381805 433.399567,336.168671 
	C424.288055,351.857910 415.376831,367.663574 406.241699,383.338928 
	C395.399414,401.943726 384.403198,420.458771 373.494202,439.024780 
	C370.703674,443.773987 368.314880,448.802307 365.112030,453.248993 
	C363.374939,455.660767 360.311951,457.117523 356.999756,459.011169 
	C323.759186,459.032318 291.365845,459.047394 258.506836,459.045288 
	C242.773209,459.014771 227.504715,459.056976 212.238342,458.897491 
	C210.796371,458.882446 207.791855,460.617981 208.001099,456.775818 
z"/>
<path fill="#57C9FF" opacity="1.000000" stroke="none" 
	d="
M358.681091,32.557446 
	C280.329071,32.976730 201.829361,32.968506 123.329819,33.087536 
	C119.769157,33.092934 116.210236,34.247650 112.256805,34.919067 
	C113.966873,33.980675 116.069321,32.127548 118.174591,32.124352 
	C198.129440,32.003056 278.084534,32.051659 358.039612,32.080780 
	C358.204224,32.080841 358.368835,32.128685 358.681091,32.557446 
z"/>
<path fill="#4ECAFF" opacity="1.000000" stroke="none" 
	d="
M258.972534,459.062469 
	C291.365845,459.047394 323.759186,459.032318 356.626892,459.032593 
	C355.589447,459.368317 354.078003,459.966125 352.565735,459.968262 
	C321.683258,460.012085 290.800629,459.987762 259.450806,459.711609 
	C258.983521,459.446167 258.972534,459.062469 258.972534,459.062469 
z"/>
<path fill="#58D3FF" opacity="1.000000" stroke="none" 
	d="
M258.506836,459.045288 
	C258.972534,459.062469 258.983521,459.446167 258.986572,459.638092 
	C241.437622,459.830017 223.885620,459.830017 205.559052,459.830017 
	C206.257568,458.608978 206.719940,457.800751 207.591705,456.884155 
	C207.791855,460.617981 210.796371,458.882446 212.238342,458.897491 
	C227.504715,459.056976 242.773209,459.014771 258.506836,459.045288 
z"/>
<path fill="#61D4FF" opacity="1.000000" stroke="none" 
	d="
M483.399963,250.922577 
	C484.499390,245.049179 482.300232,239.934570 478.999512,235.040070 
	C478.113342,233.726013 477.668915,232.114044 477.037750,230.263885 
	C479.692139,234.453796 482.721588,238.852097 484.771912,243.667313 
	C485.567810,245.536514 484.151398,248.347702 483.399963,250.922577 
z"/>
<path fill="#61D4FF" opacity="1.000000" stroke="none" 
	d="
M463.079590,205.627945 
	C459.445068,199.875244 455.739929,193.754333 452.041687,187.258423 
	C455.702026,193.008865 459.355499,199.134308 463.079590,205.627945 
z"/>
<path fill="#54C9FF" opacity="1.000000" stroke="none" 
	d="
M382.073944,66.616112 
	C379.137024,62.195473 376.135162,57.407116 373.091370,52.260025 
	C375.398468,55.415203 377.783447,58.905834 380.076141,62.456089 
	C380.841827,63.641785 381.371460,64.979935 382.073944,66.616112 
z"/>
<path fill="#54C9FF" opacity="1.000000" stroke="none" 
	d="
M95.657349,61.996880 
	C93.141777,66.782288 90.305939,71.720451 87.165306,76.821182 
	C89.686035,72.039047 92.511551,67.094345 95.657349,61.996880 
z"/>
<path fill="#50C5FF" opacity="1.000000" stroke="none" 
	d="
M109.586746,37.944515 
	C107.127121,42.812519 104.298859,47.731956 101.165527,52.815990 
	C103.646347,47.985710 106.432228,42.990829 109.586746,37.944515 
z"/>
<path fill="#61D4FF" opacity="1.000000" stroke="none" 
	d="
M474.079834,224.621735 
	C471.607727,220.730164 469.072296,216.469376 466.686890,211.860672 
	C469.230103,215.759338 471.623291,220.005936 474.079834,224.621735 
z"/>
<path fill="#5ACEFF" opacity="1.000000" stroke="none" 
	d="
M445.079315,174.623138 
	C442.803925,171.197540 440.460541,167.404968 438.080658,163.246002 
	C440.366516,166.671783 442.688934,170.463974 445.079315,174.623138 
z"/>
<path fill="#54C9FF" opacity="1.000000" stroke="none" 
	d="
M81.626221,86.041367 
	C80.121658,89.157806 78.295166,92.409584 76.160950,95.822525 
	C77.670242,92.714691 79.487274,89.445702 81.626221,86.041367 
z"/>
<path fill="#5ACEFF" opacity="1.000000" stroke="none" 
	d="
M94.621719,229.920425 
	C92.506866,231.533295 90.021561,233.213196 87.172760,234.943787 
	C89.289940,233.325455 91.770599,231.656448 94.621719,229.920425 
z"/>
<path fill="#5ACEFF" opacity="1.000000" stroke="none" 
	d="
M431.077423,150.629150 
	C429.465424,148.505508 427.786865,146.019287 426.057373,143.169220 
	C427.674561,145.292465 429.342682,147.779526 431.077423,150.629150 
z"/>
<path fill="#5ACEFF" opacity="1.000000" stroke="none" 
	d="
M449.082703,181.628738 
	C447.777100,179.866165 446.408783,177.743408 445.046509,175.252533 
	C446.375031,177.012482 447.697540,179.140503 449.082703,181.628738 
z"/>
<path fill="#5ACEFF" opacity="1.000000" stroke="none" 
	d="
M435.081696,157.629181 
	C433.779755,155.866669 432.410370,153.744339 431.046265,151.254288 
	C432.372437,153.014160 433.693329,155.141739 435.081696,157.629181 
z"/>
<path fill="#54C9FF" opacity="1.000000" stroke="none" 
	d="
M65.630852,113.031921 
	C64.793495,115.143753 63.634224,117.403206 62.165855,119.824051 
	C63.007488,117.716805 64.158211,115.448174 65.630852,113.031921 
z"/>
<path fill="#61D4FF" opacity="1.000000" stroke="none" 
	d="
M479.359192,257.970337 
	C480.197327,255.845947 481.353821,253.566467 482.832886,251.148178 
	C481.996155,253.277969 480.836853,255.546585 479.359192,257.970337 
z"/>
<path fill="#54C9FF" opacity="1.000000" stroke="none" 
	d="
M421.080505,133.623840 
	C419.804169,131.855957 418.463562,129.728180 417.085327,127.241692 
	C418.370575,129.009979 419.693390,131.136963 421.080505,133.623840 
z"/>
<path fill="#54C9FF" opacity="1.000000" stroke="none" 
	d="
M61.631695,120.032837 
	C60.784126,122.144608 59.615162,124.405861 58.135582,126.826859 
	C58.986744,124.718513 60.148525,122.450424 61.631695,120.032837 
z"/>
<path fill="#61D4FF" opacity="1.000000" stroke="none" 
	d="
M477.083740,229.632507 
	C476.125580,228.525833 475.106476,227.060043 474.065735,225.241318 
	C475.037018,226.350052 476.029907,227.811722 477.083740,229.632507 
z"/>
<path fill="#54C9FF" opacity="1.000000" stroke="none" 
	d="
M385.074402,71.636200 
	C384.134857,70.516869 383.130859,69.049316 382.086243,67.233047 
	C383.033722,68.352219 384.021820,69.820107 385.074402,71.636200 
z"/>
<path fill="#54C9FF" opacity="1.000000" stroke="none" 
	d="
M424.078705,138.635468 
	C423.136169,137.516281 422.129669,136.048340 421.085632,134.230621 
	C422.036957,135.349472 423.025879,136.818069 424.078705,138.635468 
z"/>
<path fill="#5ACEFF" opacity="1.000000" stroke="none" 
	d="
M438.079773,162.642853 
	C437.137238,161.520508 436.126831,160.049942 435.080261,158.228394 
	C436.033386,159.349823 437.022644,160.822220 438.079773,162.642853 
z"/>
<path fill="#5ACEFF" opacity="1.000000" stroke="none" 
	d="
M99.643829,226.920013 
	C98.521683,227.862671 97.051369,228.874985 95.230453,229.921890 
	C96.351791,228.967560 97.823730,227.978607 99.643829,226.920013 
z"/>
<path fill="#61D4FF" opacity="1.000000" stroke="none" 
	d="
M476.985168,262.622803 
	C477.406616,261.382812 477.984741,259.832336 478.857452,258.144470 
	C478.481964,259.442108 477.811920,260.877228 476.985168,262.622803 
z"/>
<path fill="#54C9FF" opacity="1.000000" stroke="none" 
	d="
M75.633774,96.025330 
	C75.123634,97.474991 74.296318,99.069313 73.162567,100.824852 
	C73.676285,99.380707 74.496445,97.775352 75.633774,96.025330 
z"/>
<path fill="#54C9FF" opacity="1.000000" stroke="none" 
	d="
M387.061584,75.608047 
	C386.446167,74.826675 385.783630,73.694626 385.083679,72.223648 
	C385.702301,73.008934 386.358368,74.133156 387.061584,75.608047 
z"/>
<path fill="#61D4FF" opacity="1.000000" stroke="none" 
	d="
M466.370056,210.970062 
	C465.745941,210.335617 464.927399,209.452454 464.073669,208.224670 
	C464.750885,208.827118 465.463226,209.774231 466.370056,210.970062 
z"/>
<path fill="#54C9FF" opacity="1.000000" stroke="none" 
	d="
M417.077026,126.657913 
	C416.469971,126.176262 415.797668,125.366394 415.087708,124.228683 
	C415.703918,124.710472 416.357849,125.520081 417.077026,126.657913 
z"/>
<path fill="#54C9FF" opacity="1.000000" stroke="none" 
	d="
M67.641388,110.026917 
	C67.448318,110.827805 66.946556,111.752701 66.150894,112.833183 
	C66.348892,112.042816 66.840790,111.096863 67.641388,110.026917 
z"/>
<path fill="#61D4FF" opacity="1.000000" stroke="none" 
	d="
M452.079956,186.665817 
	C451.466736,186.179688 450.786499,185.363739 450.073242,184.213562 
	C450.697784,184.698212 451.355377,185.517090 452.079956,186.665817 
z"/>
<path fill="#54C9FF" opacity="1.000000" stroke="none" 
	d="
M86.663651,77.017609 
	C86.746727,77.438438 86.540474,77.990913 86.116714,78.748512 
	C86.057571,78.352173 86.215942,77.750702 86.663651,77.017609 
z"/>
<path fill="#50C5FF" opacity="1.000000" stroke="none" 
	d="
M100.656204,53.019234 
	C100.734619,53.446964 100.520096,54.006920 100.078659,54.771706 
	C100.022247,54.368179 100.192757,53.759819 100.656204,53.019234 
z"/>
<path fill="#5ACEFF" opacity="1.000000" stroke="none" 
	d="
M101.704102,225.926880 
	C101.518059,226.204178 101.008347,226.541473 100.188698,226.917053 
	C100.379318,226.632523 100.879875,226.309708 101.704102,225.926880 
z"/>
<path fill="#5ACEFF" opacity="1.000000" stroke="none" 
	d="
M103.633911,224.948273 
	C103.460083,225.230484 102.970757,225.556015 102.180817,225.919128 
	C102.359596,225.634995 102.839005,225.313278 103.633911,224.948273 
z"/>
<path fill="#61D4FF" opacity="1.000000" stroke="none" 
	d="
M464.077362,207.702362 
	C463.794373,207.519150 463.452972,207.011887 463.075439,206.191849 
	C463.365845,206.378815 463.692383,206.878571 464.077362,207.702362 
z"/>
<path fill="#5ACEFF" opacity="1.000000" stroke="none" 
	d="
M450.076660,183.696793 
	C449.790344,183.515793 449.451782,183.010956 449.080139,182.194824 
	C449.372894,182.380020 449.698669,182.876495 450.076660,183.696793 
z"/>
<path fill="#54C9FF" opacity="1.000000" stroke="none" 
	d="
M425.091553,140.664566 
	C424.821686,140.483780 424.479980,139.988724 424.092468,139.187973 
	C424.371033,139.371628 424.695374,139.860977 425.091553,140.664566 
z"/>
<path fill="#54C9FF" opacity="1.000000" stroke="none" 
	d="
M72.660423,101.017143 
	C72.741524,101.444809 72.530426,102.005951 72.091736,102.770813 
	C72.032181,102.366562 72.200203,101.758583 72.660423,101.017143 
z"/>
</svg>